<svg width="31" height="30" viewBox="0 0 31 30" fill="none" xmlns="http://www.w3.org/2000/svg">
<rect width="31" height="29.8519" rx="4" fill="#0E64FF"/>
<path d="M12.0133 20V9.6H16.0933C17.3911 9.6 18.3289 9.83556 18.9067 10.3067C19.4844 10.7778 19.7733 11.4133 19.7733 12.2133C19.7733 12.7289 19.6489 13.1467 19.4 13.4667C19.1511 13.7867 18.7733 14.0222 18.2667 14.1733V14.4933C18.9422 14.6444 19.4533 14.9111 19.8 15.2933C20.1556 15.6756 20.3333 16.2311 20.3333 16.96C20.3333 17.8756 20.0311 18.6133 19.4267 19.1733C18.8311 19.7244 17.8444 20 16.4667 20H12.0133ZM14.1467 18.4H16.1733C16.8489 18.4 17.3378 18.2667 17.64 18C17.9422 17.7244 18.0933 17.3511 18.0933 16.88C18.0933 16.3556 17.9244 15.9733 17.5867 15.7333C17.2489 15.4844 16.7778 15.36 16.1733 15.36H14.1467V18.4ZM14.1467 13.7867H15.9333C16.44 13.7867 16.84 13.6844 17.1333 13.48C17.4356 13.2667 17.5867 12.9378 17.5867 12.4933C17.5867 11.6311 17.0356 11.2 15.9333 11.2H14.1467V13.7867Z" fill="white"/>
</svg>
