<svg width="56" height="56" viewBox="0 0 56 56" fill="none" xmlns="http://www.w3.org/2000/svg">
<path d="M28 0L32.0928 18.1191L47.799 8.20101L37.8809 23.9072L56 28L37.8809 32.0928L47.799 47.799L32.0928 37.8809L28 56L23.9072 37.8809L8.20101 47.799L18.1191 32.0928L0 28L18.1191 23.9072L8.20101 8.20101L23.9072 18.1191L28 0Z" fill="black"/>
<path d="M19.6333 31V24.5H21.0333V26.975H23.8V24.5H25.2V31H23.8V28.1083H21.0333V31H19.6333ZM28.5859 31.125C27.7582 31.125 27.1387 30.8889 26.7276 30.4167C26.322 29.9389 26.1193 29.3 26.1193 28.5C26.1193 27.7 26.322 27.0639 26.7276 26.5917C27.1387 26.1139 27.7582 25.875 28.5859 25.875C29.4137 25.875 30.0304 26.1139 30.4359 26.5917C30.847 27.0639 31.0526 27.7 31.0526 28.5C31.0526 29.3 30.847 29.9389 30.4359 30.4167C30.0304 30.8889 29.4137 31.125 28.5859 31.125ZM28.5859 30.225C28.9526 30.225 29.222 30.0806 29.3943 29.7917C29.5665 29.5028 29.6526 29.0694 29.6526 28.4917C29.6526 27.9194 29.5665 27.4917 29.3943 27.2083C29.222 26.9194 28.9526 26.775 28.5859 26.775C28.2193 26.775 27.9498 26.9194 27.7776 27.2083C27.6054 27.4917 27.5193 27.9194 27.5193 28.4917C27.5193 29.0694 27.6054 29.5028 27.7776 29.7917C27.9498 30.0806 28.2193 30.225 28.5859 30.225ZM31.9673 31V24.5H36.2507V25.6H33.3507V27.075H35.5507V28.0917H33.3507V31H31.9673Z" fill="white"/>
</svg>
